<svg xmlns="http://www.w3.org/2000/svg" viewBox="0 0 32 32" fill="none">
  <defs>
    <linearGradient id="favGradient" x1="0%" y1="0%" x2="100%" y2="100%">
      <stop offset="0%" style="stop-color:#4299f0"/>
      <stop offset="100%" style="stop-color:#6366f1"/>
    </linearGradient>
  </defs>
  <!-- Background -->
  <rect width="32" height="32" rx="8" fill="url(#favGradient)"/>
  <!-- Lightbulb icon representing "ide" (idea) -->
  <path d="M16 6C12.134 6 9 9.134 9 13C9 15.393 10.231 17.494 12.1 18.7C12.5 19 12.8 19.5 12.8 20V21C12.8 21.6 13.2 22 13.8 22H18.2C18.8 22 19.2 21.6 19.2 21V20C19.2 19.5 19.5 19 19.9 18.7C21.769 17.494 23 15.393 23 13C23 9.134 19.866 6 16 6Z" fill="white"/>
  <rect x="13" y="23" width="6" height="2" rx="1" fill="white"/>
  <rect x="14" y="26" width="4" height="1" rx="0.5" fill="white"/>
</svg>
