<svg xmlns="http://www.w3.org/2000/svg" viewBox="0 0 240 50" fill="none">
  <defs>
    <linearGradient id="logoGradient" x1="0%" y1="0%" x2="100%" y2="100%">
      <stop offset="0%" style="stop-color:#4299f0"/>
      <stop offset="100%" style="stop-color:#6366f1"/>
    </linearGradient>
  </defs>
  <!-- Lightbulb Icon -->
  <g>
    <circle cx="20" cy="20" r="18" fill="url(#logoGradient)" opacity="0.1"/>
    <path d="M20 8C15.029 8 11 12.029 11 17C11 19.786 12.433 22.233 14.6 23.6C15.1 23.95 15.4 24.5 15.4 25.1V26C15.4 26.6 15.9 27 16.5 27H23.5C24.1 27 24.6 26.6 24.6 26V25.1C24.6 24.5 24.9 23.95 25.4 23.6C27.567 22.233 29 19.786 29 17C29 12.029 24.971 8 20 8Z" fill="url(#logoGradient)"/>
    <rect x="16" y="28" width="8" height="2.5" rx="1" fill="url(#logoGradient)"/>
    <rect x="17.5" y="31.5" width="5" height="1.5" rx="0.75" fill="url(#logoGradient)"/>
  </g>
  <!-- Text: ideidetsploshad -->
  <text x="45" y="30" font-family="system-ui, -apple-system, sans-serif" font-size="18" font-weight="700" fill="currentColor">
    <tspan fill="url(#logoGradient)">ide</tspan><tspan fill="currentColor">idetsploshad</tspan>
  </text>
</svg>
